<?xml version="1.0" encoding="UTF-8" standalone="no"?>
<!DOCTYPE svg PUBLIC "-//W3C//DTD SVG 1.1//EN" "http://www.w3.org/Graphics/SVG/1.1/DTD/svg11.dtd">
<svg width="100%" height="100%" viewBox="0 0 2774 1081" version="1.1" xmlns="http://www.w3.org/2000/svg" xmlns:xlink="http://www.w3.org/1999/xlink" xml:space="preserve" xmlns:serif="http://www.serif.com/" style="fill-rule:evenodd;clip-rule:evenodd;stroke-linejoin:round;stroke-miterlimit:2;">
    <g transform="matrix(1,0,0,1,-616.501,-1463.05)">
        <path d="M1683.61,2027.39C1796.2,2185.21 1543.56,2469 1414.12,2543.98C1662.84,2432.31 1800.82,2153.83 1727.91,1882.27C1647.15,1580.71 1337.29,1401.67 1035.74,1482.42C995.822,1493.04 958.214,1507.8 923.144,1525.8C1142.56,1429.59 1616.01,1512.19 1617.39,1784.44C1612.78,1824.36 1592.01,1862.19 1556.94,1887.34C1490.49,1934.87 1398.43,1919.64 1350.91,1853.43C1303.15,1787.21 1318.37,1694.92 1384.59,1647.39C1407.2,1631.24 1432.81,1622.47 1458.42,1620.17C1348.6,1550.72 1211.09,1525.57 1075.42,1562.02C817.935,1631.01 664.965,1895.88 733.951,2153.37C802.938,2411.08 1067.81,2564.05 1325.53,2495.07C1464.65,2457.69 1573.32,2363.09 1632.85,2243.58C1568.48,2277.96 1487.26,2260.19 1443.43,2199.28C1395.9,2133.06 1411.12,2041 1477.34,1993.24C1543.56,1945.72 1635.85,1960.94 1683.38,2027.16C1683.38,2027.16 1683.38,2027.39 1683.61,2027.39ZM1327.83,1996.24C1327.83,2025.32 1304.3,2048.85 1275.23,2048.85C1246.16,2048.85 1222.62,2025.32 1222.62,1996.24C1222.62,1967.17 1246.16,1943.64 1275.23,1943.64C1304.3,1943.64 1327.83,1967.17 1327.83,1996.24ZM1104.72,1996.94C1152.25,2063.15 1137.26,2155.44 1071.04,2202.97C1004.59,2250.5 912.531,2235.27 865.002,2169.06C817.242,2102.84 832.47,2010.55 898.688,1963.02C964.905,1915.49 1057.19,1930.72 1104.72,1996.94ZM1233.01,1662.62C1280.53,1728.84 1265.54,1821.13 1199.32,1868.65C1133.1,1916.18 1040.81,1900.96 993.284,1834.74C945.755,1768.52 960.752,1676.23 1026.97,1628.7C1093.19,1581.17 1185.48,1596.4 1233.01,1662.62ZM1176.94,2188.44C1243.16,2140.91 1335.45,2155.9 1382.98,2222.12C1430.5,2288.34 1415.51,2380.63 1349.29,2428.16C1283.07,2475.69 1190.78,2460.69 1143.25,2394.47C1095.73,2328.25 1110.72,2235.97 1176.94,2188.44Z" style="fill:white;"/>
        <path d="M915.992,2527.37C670.964,2361.48 572.445,2048.62 678.116,1772.44C616.975,1892.42 598.286,2034.54 635.894,2174.82C678.116,2332.18 782.634,2456.08 915.992,2527.37Z" style="fill:rgb(227,11,19);"/>
        <path d="M3337.89,2380.63C3328.43,2380.63 3320.82,2384.32 3315.05,2391.24C3307.9,2400.01 3304.44,2412.93 3304.44,2430C3304.44,2447.31 3308.13,2460.69 3315.51,2470.15C3321.28,2477.3 3328.66,2480.76 3338.12,2480.76C3348.04,2480.76 3356.35,2476.84 3362.81,2469C3369.27,2461.15 3372.5,2448.92 3372.5,2432.08C3372.5,2413.85 3369.04,2400.24 3361.89,2391.47C3356.12,2384.32 3348.04,2380.63 3337.89,2380.63ZM3339.51,2375.09C3353.35,2375.09 3365.35,2380.4 3375.27,2390.78C3385.42,2401.39 3390.5,2414.31 3390.5,2430.23C3390.5,2446.39 3385.42,2459.77 3375.27,2470.38C3365.12,2480.99 3352.66,2486.3 3338.12,2486.3C3323.59,2486.3 3311.36,2481.22 3301.44,2470.84C3291.52,2460.46 3286.44,2446.85 3286.44,2430.23C3286.44,2413.39 3292.21,2399.78 3303.75,2388.94C3313.67,2379.71 3325.66,2375.09 3339.51,2375.09ZM3095.63,2480.99L3095.63,2483.99L3050.18,2483.99L3050.18,2480.99L3053.87,2480.99C3058.26,2480.99 3061.49,2479.84 3063.56,2477.3C3064.72,2475.69 3065.41,2471.53 3065.41,2465.3L3065.41,2396.32C3065.41,2391.01 3064.95,2387.32 3064.25,2385.7C3063.79,2384.32 3062.64,2383.17 3061.02,2382.24C3058.72,2381.09 3056.41,2380.4 3053.87,2380.4L3050.18,2380.4L3050.18,2377.4L3095.63,2377.4L3095.63,2380.4L3091.94,2380.4C3087.56,2380.4 3084.33,2381.78 3082.48,2384.32C3081.1,2385.94 3080.41,2389.86 3080.41,2396.32L3080.41,2465.3C3080.41,2470.61 3080.87,2474.07 3081.56,2475.92C3082.02,2477.07 3083.17,2478.22 3084.79,2479.15C3087.1,2480.53 3089.4,2480.99 3091.94,2480.99L3095.63,2480.99ZM2782.08,2476.15C2788.54,2477.53 2794.08,2478.46 2798.69,2478.46C2810.69,2478.46 2820.84,2474.07 2828.69,2465.54C2836.76,2457 2840.68,2445.46 2840.68,2430.93C2840.68,2416.16 2836.76,2404.62 2828.69,2396.09C2820.84,2387.78 2810.46,2383.4 2798,2383.4C2793.39,2383.4 2788.08,2384.09 2782.08,2385.7L2782.08,2476.15ZM2751.63,2483.99L2751.63,2480.99L2755.55,2480.99C2760.16,2480.99 2763.39,2479.61 2765.24,2476.84C2766.39,2474.99 2766.85,2471.07 2766.85,2465.3L2766.85,2396.32C2766.85,2389.63 2766.16,2385.47 2764.78,2383.86C2762.7,2381.55 2759.7,2380.4 2755.55,2380.4L2751.63,2380.4L2751.63,2377.4L2795,2377.4C2810.92,2377.4 2822.92,2379.24 2831.22,2382.94C2839.53,2386.63 2846.22,2392.63 2851.07,2400.93C2856.14,2409.47 2858.68,2419.16 2858.68,2430.23C2858.68,2445 2854.3,2457.46 2845.3,2467.38C2835.15,2478.46 2819.69,2483.99 2799.15,2483.99L2751.63,2483.99ZM2528.52,2380.4L2528.52,2377.4L2565.89,2377.4L2565.89,2380.4L2561.97,2380.4C2557.82,2380.4 2554.59,2382.24 2552.28,2385.7C2551.13,2387.32 2550.67,2391.01 2550.67,2397.01L2550.67,2440.16C2550.67,2450.77 2549.51,2459.07 2547.44,2464.84C2545.36,2470.84 2541.21,2475.92 2534.98,2480.07C2528.75,2484.22 2520.44,2486.3 2509.83,2486.3C2498.06,2486.3 2489.29,2484.45 2483.29,2480.3C2477.3,2476.38 2473.14,2470.84 2470.6,2464.15C2468.99,2459.54 2468.07,2450.77 2468.07,2437.85L2468.07,2396.32C2468.07,2389.86 2467.14,2385.47 2465.3,2383.4C2463.68,2381.32 2460.68,2380.4 2456.53,2380.4L2452.61,2380.4L2452.61,2377.4L2498.52,2377.4L2498.52,2380.4L2494.6,2380.4C2490.22,2380.4 2486.99,2381.78 2485.14,2384.55C2483.76,2386.4 2483.06,2390.32 2483.06,2396.32L2483.06,2442.69C2483.06,2446.85 2483.52,2451.46 2484.22,2457C2485.14,2462.3 2486.52,2466.46 2488.37,2469.46C2490.45,2472.23 2493.22,2474.76 2496.91,2476.84C2500.83,2478.69 2505.44,2479.61 2510.75,2479.61C2517.67,2479.61 2523.9,2478.22 2529.44,2474.99C2534.98,2472 2538.67,2468.07 2540.74,2463.46C2542.59,2458.61 2543.74,2450.77 2543.74,2439.46L2543.74,2396.32C2543.74,2389.63 2543.05,2385.47 2541.44,2383.86C2539.59,2381.55 2536.36,2380.4 2532.44,2380.4L2528.52,2380.4ZM2265.26,2377.4L2266.41,2402.55L2263.41,2402.55C2262.95,2398.16 2262.03,2394.93 2261.11,2393.09C2259.49,2390.09 2257.42,2387.78 2254.65,2386.4C2251.88,2385.01 2248.42,2384.32 2244.03,2384.32L2229.04,2384.32L2229.04,2465.54C2229.04,2472 2229.73,2476.15 2231.11,2477.76C2233.19,2480.07 2236.19,2480.99 2240.34,2480.99L2244.03,2480.99L2244.03,2483.99L2198.81,2483.99L2198.81,2480.99L2202.5,2480.99C2207.12,2480.99 2210.35,2479.84 2212.19,2477.07C2213.35,2475.23 2214.04,2471.53 2214.04,2465.54L2214.04,2384.32L2201.12,2384.32C2196.27,2384.32 2192.58,2384.55 2190.51,2385.24C2187.97,2386.4 2185.66,2388.24 2183.58,2391.01C2181.74,2393.78 2180.59,2397.7 2180.12,2402.55L2177.12,2402.55L2178.28,2377.4L2265.26,2377.4ZM1975.47,2375.09L1975.47,2411.78L1972.7,2411.78C1971.78,2404.85 1969.94,2399.09 1967.63,2394.93C1965.09,2390.78 1961.63,2387.55 1957.25,2385.01C1952.63,2382.47 1948.02,2381.32 1943.17,2381.32C1937.63,2381.32 1933.25,2382.94 1929.56,2386.4C1926.1,2389.63 1924.25,2393.55 1924.25,2397.7C1924.25,2400.93 1925.41,2403.93 1927.71,2406.47C1930.94,2410.39 1938.56,2415.7 1950.79,2422.16C1960.71,2427.7 1967.63,2431.62 1971.32,2434.62C1974.78,2437.39 1977.78,2440.85 1979.63,2444.54C1981.7,2448.46 1982.62,2452.61 1982.62,2456.77C1982.62,2464.84 1979.39,2471.76 1973.17,2477.53C1966.94,2483.53 1958.86,2486.3 1949.17,2486.3C1945.94,2486.3 1943.17,2486.07 1940.4,2485.61C1938.79,2485.38 1935.33,2484.45 1930.25,2482.84C1925.17,2481.22 1921.94,2480.3 1920.56,2480.3C1919.18,2480.3 1918.25,2480.76 1917.56,2481.45C1916.64,2482.38 1916.18,2483.99 1915.72,2486.3L1912.95,2486.3L1912.95,2449.85L1915.72,2449.85C1917.1,2457.46 1918.95,2463.23 1921.25,2467.15C1923.56,2470.84 1927.02,2474.07 1931.87,2476.61C1936.48,2479.15 1941.79,2480.3 1947.32,2480.3C1954.02,2480.3 1959.09,2478.46 1963.01,2474.99C1966.71,2471.53 1968.55,2467.61 1968.55,2462.77C1968.55,2460.23 1967.86,2457.46 1966.47,2454.92C1965.09,2452.15 1962.78,2449.62 1959.78,2447.31C1957.71,2445.69 1952.17,2442.46 1942.94,2437.39C1933.94,2432.31 1927.48,2428.16 1923.56,2425.16C1919.64,2422.16 1916.64,2418.93 1914.79,2415.24C1912.72,2411.55 1911.79,2407.39 1911.79,2403.01C1911.79,2395.4 1914.79,2388.94 1920.56,2383.4C1926.33,2377.86 1933.94,2375.09 1942.94,2375.09C1948.71,2375.09 1954.71,2376.48 1960.94,2379.24C1963.94,2380.63 1966.01,2381.09 1967.17,2381.09C1968.55,2381.09 1969.7,2380.86 1970.63,2379.94C1971.32,2379.24 1972.01,2377.63 1972.7,2375.09L1975.47,2375.09Z" style="fill:white;"/>
        <path d="M1912.25,2230.66C1912.25,2274.03 1910.87,2314.64 1909.72,2327.79C1912.72,2327.1 1921.94,2326.64 1927.71,2326.64C1932.79,2326.64 1939.48,2326.64 1943.4,2327.33C1942.02,2313.03 1940.86,2272.88 1940.86,2231.58L1940.86,2099.38C1940.86,2093.61 1940.86,2092.92 1942.48,2092.69C1944.79,2091.53 1955.4,2091.07 1962.78,2091.07C1978.7,2091.07 1993.47,2094.3 2002.7,2100.99C2018.39,2109.99 2027.62,2126.37 2027.62,2148.52C2027.62,2187.05 1998.78,2202.05 1966.94,2203.43C1968.32,2206.89 1970.63,2215.89 1971.55,2219.58C2019.54,2219.81 2056.69,2190.74 2056.69,2143.45C2056.69,2121.53 2046.3,2104.45 2038,2096.38C2023.92,2083.69 2006.85,2074.46 1966.94,2074.46C1948.25,2074.46 1930.48,2075.61 1921.94,2075.61C1917.33,2075.61 1912.72,2075.61 1909.02,2075.15C1910.87,2086.92 1912.25,2123.83 1912.25,2171.59L1912.25,2230.66ZM2109.52,2244.96C2109.52,2281.88 2108.6,2317.64 2107.22,2327.79C2110.21,2327.33 2119.21,2326.64 2125.9,2326.64C2130.98,2326.64 2137.44,2327.1 2139.98,2327.33C2138.13,2319.03 2137.44,2280.96 2137.44,2244.96L2137.44,2194.67C2137.44,2154.52 2138.59,2122.68 2139.29,2112.3C2136.98,2112.76 2129.6,2113.45 2120.37,2113.45C2115.98,2113.45 2109.52,2113.45 2106.52,2112.99C2108.6,2120.37 2109.52,2154.29 2109.52,2194.67L2109.52,2244.96ZM2327.56,2331.48C2352.7,2331.48 2378.08,2326.41 2389.62,2321.79C2390.08,2315.1 2392.62,2302.18 2394.93,2295.49C2379.7,2306.34 2356.4,2310.95 2330.56,2310.95C2256.26,2310.95 2227.42,2259.5 2227.42,2213.82C2227.42,2189.82 2233.88,2166.29 2252.8,2148.29C2264.34,2137.91 2283.03,2126.37 2317.87,2126.37C2354.78,2126.37 2380.16,2138.14 2391.93,2149.91C2392.16,2139.75 2394.23,2126.83 2396.31,2121.07C2384.08,2117.84 2360.09,2108.38 2319.94,2108.38C2276.1,2108.38 2247.26,2121.76 2228.34,2139.52C2201.58,2164.21 2196.27,2195.82 2196.27,2216.82C2196.27,2241.96 2204.35,2276.11 2232.5,2301.03C2256.95,2322.03 2288.1,2331.48 2327.56,2331.48ZM2425.61,2136.52C2434.15,2133.76 2444.76,2132.6 2465.53,2131.91C2484.91,2131.22 2492.29,2131.22 2506.14,2131.22L2506.14,2244.96C2506.14,2281.88 2504.98,2317.64 2503.83,2327.79C2507.52,2327.1 2515.36,2326.64 2523.21,2326.64C2527.82,2326.64 2533.13,2326.64 2536.13,2327.33C2535.21,2316.72 2533.82,2279.57 2533.82,2243.58L2533.82,2131.22C2555.28,2131.22 2567.97,2131.91 2580.43,2132.6C2599.58,2133.52 2607.88,2134.91 2612.5,2138.14C2612.96,2130.06 2614.34,2118.07 2615.96,2111.14C2610.65,2112.3 2588.73,2113.45 2571.43,2113.45L2474.99,2113.45C2449.38,2113.45 2437.84,2112.3 2430.69,2110.68C2430,2117.37 2427.46,2131.45 2425.61,2136.52ZM2653.8,2112.76C2655.41,2120.14 2657.03,2154.29 2657.03,2194.67L2657.03,2239.66C2657.03,2280.96 2667.41,2299.18 2681.95,2312.33C2698.33,2326.64 2722.78,2331.48 2743.78,2331.48C2763.16,2331.48 2786,2328.72 2803.77,2313.72C2828.92,2292.26 2831.92,2260.65 2831.92,2227.66L2831.92,2194.67C2831.92,2154.52 2833.53,2121.53 2834.92,2112.3C2833.3,2112.76 2826.61,2113.45 2819.46,2113.45C2816.23,2113.45 2810.23,2113.45 2806.77,2112.76C2808.38,2123.14 2810.23,2154.29 2810.23,2194.67L2810.23,2227.89C2810.23,2261.11 2806.54,2281.42 2792.46,2296.65C2781.39,2307.95 2762.93,2311.41 2750.24,2311.41C2737.09,2311.41 2719.09,2308.87 2705.71,2297.34C2693.25,2286.26 2684.95,2271.04 2684.95,2233.89L2684.95,2194.67C2684.95,2154.52 2685.87,2121.53 2687.25,2112.3C2683.56,2112.99 2675.95,2113.45 2667.18,2113.45C2662.1,2113.45 2656.8,2113.45 2653.8,2112.76ZM2905.52,2244.96C2905.52,2281.88 2904.13,2317.41 2902.98,2327.79C2906.21,2327.1 2915.9,2326.64 2921.67,2326.64C2926.97,2326.64 2932.74,2326.64 2935.28,2327.33C2934.13,2314.64 2932.74,2284.19 2932.74,2248.66L2932.74,2239.66C2932.74,2238.73 2932.97,2238.73 2934.13,2238.73L2972.66,2238.73C2974.5,2238.73 2975.2,2239.43 2976.58,2240.58C2989.73,2257.65 3016.73,2297.57 3033.11,2313.26C3044.87,2325.49 3052.03,2328.72 3066.56,2328.72C3073.71,2328.72 3083.17,2328.02 3086.87,2326.41C3081.79,2324.1 3072.1,2316.72 3059.64,2303.34C3039.57,2281.88 3018.34,2253.73 2999.65,2229.51C3023.19,2213.82 3035.41,2193.74 3035.41,2169.29C3035.41,2148.29 3024.57,2131.45 3009.34,2122.45C2996.65,2114.84 2977.5,2112.07 2956.51,2112.07C2945.66,2112.07 2922.36,2113.45 2916.59,2113.45C2911.52,2113.45 2907.59,2113.45 2901.83,2112.76C2904.83,2122.45 2905.52,2154.29 2905.52,2194.67L2905.52,2244.96ZM2932.74,2131.91C2932.74,2130.53 2932.74,2130.06 2933.67,2129.83C2937.82,2128.91 2946.12,2128.45 2955.12,2128.45C2987.65,2128.45 3007.73,2146.44 3007.73,2176.67C3007.73,2196.51 2997.58,2210.82 2986.04,2218.89C2982.58,2221.2 2977.96,2222.35 2969.2,2222.35C2953.74,2222.35 2939.43,2221.2 2933.67,2219.81C2932.97,2219.81 2932.74,2219.58 2932.74,2217.97L2932.74,2131.91ZM3117.55,2244.96C3117.55,2285.11 3115.94,2317.41 3114.78,2327.33C3118.47,2327.1 3125.86,2326.64 3135.09,2326.64C3147.32,2326.64 3169.93,2328.49 3210.3,2328.49C3221.38,2328.49 3224.84,2328.02 3225.76,2327.79C3226.68,2321.79 3229.45,2310.72 3231.76,2304.26C3222.99,2307.95 3209.61,2310.03 3182.62,2310.03C3169.93,2310.03 3160.47,2309.34 3153.31,2308.64C3150.78,2308.41 3148.01,2307.72 3147.08,2307.03C3145.7,2305.64 3145.01,2298.03 3145.01,2242.66L3145.01,2223.51C3145.01,2222.81 3145.47,2222.35 3145.93,2222.35C3151.7,2222.35 3185.62,2222.58 3195.54,2223.28C3207.07,2224.2 3211.92,2225.58 3216.07,2227.66C3216.07,2221.66 3216.99,2208.74 3218.61,2202.05C3215.38,2203.2 3208.69,2203.9 3193,2204.59C3184.23,2204.82 3150.31,2204.82 3145.93,2204.82C3145.47,2204.82 3145.01,2204.13 3145.01,2203.2L3145.01,2132.14C3145.01,2131.22 3145.7,2131.22 3145.93,2131.22C3170.16,2131.22 3187.46,2131.91 3196.92,2132.14C3211.23,2133.52 3217.45,2134.91 3221.38,2137.22C3221.38,2127.06 3222.76,2116.68 3223.45,2111.84C3218.15,2112.99 3205.92,2113.45 3199.69,2113.45L3133.24,2113.45C3126.55,2113.45 3118.24,2113.45 3114.32,2112.76C3116.17,2120.83 3117.55,2148.52 3117.55,2194.67L3117.55,2244.96ZM3268.91,2319.72C3279.06,2326.41 3298.67,2331.48 3317.82,2331.48C3332.59,2331.48 3350.35,2328.49 3363.73,2319.72C3384.04,2305.64 3390.5,2283.26 3390.5,2270.57C3390.5,2248.42 3383.58,2231.35 3348.04,2208.74L3333.51,2199.74C3307.44,2182.67 3303.75,2172.29 3303.75,2157.52C3303.75,2138.83 3318.51,2126.37 3340.2,2126.37C3363.73,2126.37 3378.04,2136.06 3383.58,2142.98C3383.58,2132.14 3385.19,2116.45 3386.11,2113.45C3383.81,2112.99 3378.73,2112.3 3370.66,2111.14C3363.96,2109.76 3353.35,2108.38 3342.05,2108.38C3300.75,2108.38 3276.98,2133.52 3276.98,2163.75C3276.98,2183.82 3285.06,2202.51 3316.2,2222.58L3330.97,2232.04C3356.12,2247.96 3362.12,2259.04 3362.12,2276.11C3362.12,2296.18 3348.27,2312.57 3321.28,2312.57C3298.44,2312.57 3279.98,2300.57 3271.21,2289.49C3271.68,2298.26 3270.06,2315.33 3268.91,2319.72Z" style="fill:white;"/>
        <path d="M2777.7,1963.71L2775.16,1966.25C2772.62,1967.87 2771.47,1970.4 2771.93,1974.09C2729.48,2006.17 2695.33,2023.24 2669.72,2025.32C2655.41,2025.78 2641.34,2023.24 2627.5,2017.24C2615.73,2011.01 2607.88,2002.47 2603.5,1991.86C2599.81,1983.32 2597.27,1969.25 2595.66,1949.41C2612.04,1865.42 2651.95,1799.67 2715.4,1752.14C2717.48,1751.68 2723.71,1750.52 2733.63,1748.91C2742.17,1747.52 2749.32,1748.91 2754.86,1753.75C2760.39,1758.6 2763.16,1765.29 2763.16,1773.83C2762.24,1780.75 2761.32,1787.44 2760.85,1793.67C2751.86,1824.59 2720.94,1860.35 2668.33,1900.72C2665.1,1903.49 2656.34,1906.03 2641.8,1908.8C2633.26,1910.42 2629.34,1915.03 2629.8,1923.1C2622.88,1934.87 2620.11,1945.72 2621.04,1955.87C2621.04,1960.02 2623.34,1968.1 2627.5,1979.86C2636.49,1992.55 2651.26,1999.01 2671.33,1999.01L2674.56,1996.47C2683.1,1996.47 2694.87,1993.71 2709.86,1987.71C2724.63,1978.71 2748.4,1966.02 2780.93,1949.41C2781.39,1951.48 2781.62,1953.1 2781.62,1954.71C2785.31,1940.64 2789.69,1925.41 2795.23,1908.8C2809.54,1864.04 2817.61,1831.05 2819.23,1809.59C2818.07,1796.44 2815.07,1783.52 2810.46,1771.29C2819.46,1763.44 2830.53,1762.29 2843.91,1768.06C2850.37,1777.75 2853.37,1790.44 2853.37,1806.59C2853.37,1824.59 2848.76,1843.97 2839.07,1864.73C2839.07,1871.65 2837.45,1882.73 2833.99,1897.96C2830.53,1913.18 2829.38,1924.72 2830.3,1932.56C2846.91,1912.49 2872.29,1882.27 2906.9,1842.35C2935.28,1809.36 2963.66,1783.29 2992.5,1764.14C3007.96,1770.14 3015.57,1783.06 3015.57,1803.36C3015.57,1807.05 3015.11,1815.36 3013.96,1828.05C3013.03,1838.2 3012.57,1846.04 3013.26,1852.04C3006.8,1873.27 2998.27,1906.26 2987.65,1951.02C2988.12,1951.48 2989.04,1951.48 2989.96,1951.02C3004.96,1937.18 3022.96,1914.57 3043.95,1883.19C3064.95,1851.81 3081.56,1830.35 3093.79,1819.28C3117.78,1797.36 3131.86,1784.67 3136.24,1780.98C3142.47,1776.13 3154.47,1768.75 3172,1758.6C3180.54,1758.6 3186.54,1763.21 3189.77,1772.21C3191.38,1791.82 3187.92,1814.43 3179.39,1840.04C3166,1877.19 3158.85,1899.11 3157.7,1905.57C3146.62,1964.17 3141.55,2003.63 3142.47,2024.39L3143.39,2024.39C3145.47,2024.39 3148.93,2025.55 3153.78,2027.62C3152.62,2034.54 3149.85,2039.62 3145.01,2042.85C3144.32,2042.85 3138.78,2044.93 3128.17,2049.31C3115.48,2038.01 3109.02,2021.62 3109.02,1999.7C3109.02,1993.24 3109.48,1984.25 3110.63,1972.25C3111.78,1960.25 3112.25,1951.02 3112.25,1944.56C3115.71,1925.87 3122.4,1901.65 3131.86,1871.88C3143.85,1836.35 3151.24,1812.36 3154.47,1800.13L3152.85,1800.13C3151.24,1801.28 3149.39,1803.59 3147.32,1807.28C3145.24,1810.97 3143.62,1812.82 3142.47,1812.82C3133.01,1819.74 3124.7,1827.82 3117.78,1836.81C3103.48,1855.04 3092.63,1867.96 3085.02,1876.04C3069.56,1895.65 3047.64,1923.1 3018.8,1958.17C3004.96,1975.25 2995.73,1985.63 2990.89,1989.32C2973.81,2004.32 2961.12,2011.01 2952.58,2009.4C2951.43,2005.7 2951.43,2000.63 2952.58,1994.17C2954.2,1985.17 2954.89,1979.63 2954.89,1977.32C2954.89,1969.94 2956.74,1952.64 2960.43,1925.41C2962.04,1916.88 2966.66,1900.49 2974.04,1876.04C2976.12,1870.04 2977.5,1863.81 2977.96,1856.89C2977.96,1852.5 2977.73,1846.97 2977.27,1840.04C2976.81,1833.12 2976.58,1828.51 2976.58,1826.43C2976.58,1821.59 2976.12,1817.2 2975.66,1812.82C2965.04,1819.28 2952.35,1832.66 2937.36,1852.73C2920.75,1874.65 2908.29,1888.96 2899.75,1895.88C2889.14,1911.34 2872.29,1930.03 2849.45,1951.95C2829.38,1970.4 2815.07,1987.71 2807.23,2003.63C2806.54,2002.7 2804.69,2003.63 2801.23,2006.86C2797.77,2010.09 2795.69,2011.7 2795.23,2011.7L2783.23,2011.7C2778.85,2011.7 2774.93,2010.32 2771.24,2007.78C2772.62,1994.4 2775.62,1978.71 2780,1960.71C2779.54,1961.64 2778.62,1962.79 2777.7,1963.71ZM2731.32,1789.75C2729.71,1788.13 2727.86,1786.52 2725.78,1784.9C2697.41,1802.44 2672.95,1831.74 2652.18,1872.81C2654.95,1872.81 2657.95,1871.65 2660.95,1869.58C2674.33,1857.35 2687.71,1845.12 2700.87,1832.89C2716.32,1816.28 2726.48,1801.98 2731.32,1789.75ZM2572.35,1852.04C2568.66,1869.58 2565.2,1886.88 2561.97,1903.95C2557.82,1925.64 2555.74,1942.95 2555.74,1955.87C2555.74,1979.17 2561.74,1999.7 2573.97,2017.24C2568.66,2018.85 2563.82,2019.78 2559.66,2019.78C2552.28,2019.78 2545.59,2017.24 2539.59,2012.63C2529.44,1994.86 2524.59,1973.86 2524.59,1949.41C2524.59,1933.95 2526.9,1914.57 2531.75,1891.03L2542.82,1835.2L2542.13,1833.58C2529.38,1843.29 2515.63,1857.54 2500.83,1876.28C2492.05,1887.39 2482.9,1900.08 2473.37,1914.34C2446.15,1954.71 2424.69,1982.4 2408.77,1997.4C2401.16,2000.63 2394.7,2002.24 2388.7,2002.24C2385.47,2002.24 2382.47,2001.55 2379.24,2000.63C2370.01,1993.71 2367.7,1981.94 2372.09,1965.33C2377.85,1942.49 2386.16,1912.26 2396.77,1874.42C2406.23,1839.35 2412.69,1808.44 2415.92,1781.67C2419.61,1777.06 2424.23,1774.52 2429.54,1774.52C2434.84,1774.52 2439.69,1777.52 2444.3,1783.29C2448.69,1789.29 2450.53,1794.82 2449.38,1800.13L2415,1941.56C2417.31,1935.56 2422.61,1928.18 2431.15,1919.18C2458.15,1881.34 2475.68,1857.58 2483.76,1848.12C2504.98,1822.97 2527.13,1803.36 2549.97,1788.82C2567.51,1788.82 2576.51,1798.28 2576.51,1816.97C2576.51,1820.66 2575.81,1826.43 2574.43,1834.51C2573.05,1842.35 2572.35,1848.35 2572.35,1852.04ZM2346.48,1688.23L2343.94,1689.84C2343.01,1691 2341.86,1693.54 2340.94,1697.92C2315.33,1700 2301.72,1694 2300.1,1679.46C2300.1,1670.92 2303.1,1665.62 2308.87,1663.54C2310.94,1663.08 2317.4,1663.08 2328.02,1663.54C2330.79,1663.54 2334.25,1662.85 2338.4,1661.23C2342.78,1662.85 2347.17,1667.46 2352.01,1675.54C2352.47,1679.69 2350.63,1684.08 2346.48,1688.23ZM2216.35,1956.56C2213.12,1961.4 2209.89,1964.17 2206.66,1964.64C2196.04,1972.02 2185.66,1979.86 2175.51,1987.71C2161.67,1996.24 2149.9,2000.86 2140.44,2001.32C2124.98,2011.93 2106.29,2018.62 2084.6,2021.39C2071.68,2022.32 2052.3,2024.16 2026.23,2026.93C1998.54,2023.7 1974.55,2014.7 1954.25,1999.7C1932.56,1983.32 1918.95,1962.33 1913.64,1936.72C1910.87,1929.33 1909.72,1921.03 1909.72,1912.03C1909.72,1897.26 1913.18,1878.34 1920.1,1855.5L1936.02,1802.9L1980.78,1721.68C1988.95,1706.74 1997.36,1693.3 2006.01,1681.32C2015.92,1667.58 2026.13,1655.76 2036.61,1645.78C2082.99,1583.02 2126.6,1541.95 2167.66,1522.11C2175.05,1521.19 2181.97,1520.72 2188.43,1520.72C2203.2,1520.72 2214.73,1524.18 2222.58,1531.11L2222.58,1545.41C2222.12,1550.26 2219.81,1554.41 2215.42,1558.1C2213.81,1558.79 2205.27,1559.25 2189.81,1559.72C2178.74,1560.18 2170.66,1563.41 2166.05,1569.41C2158.44,1574.02 2147.82,1580.94 2133.52,1590.17C2119.44,1598.94 2109.75,1608.63 2104.45,1618.78C2027.39,1695.84 1975.93,1789.05 1950.32,1898.42C1949.4,1928.18 1955.86,1952.18 1970.4,1970.17C1985.16,1989.78 2007.08,1999.7 2035.69,1999.7C2043.77,1999.7 2055.53,1998.55 2071.22,1996.24C2087.14,1993.71 2097.99,1992.32 2104.45,1991.86C2119.91,1987.48 2142.29,1978.71 2171.59,1965.33C2174.82,1964.87 2180.59,1962.1 2189.12,1957.02C2197.66,1951.95 2204.58,1949.87 2209.89,1951.02C2211.96,1948.48 2215.19,1947.1 2219.35,1947.1L2231.11,1947.1C2233.19,1899.34 2241.27,1852.27 2255.34,1805.67C2258.11,1797.13 2265.26,1779.6 2277.03,1753.06C2280.26,1749.37 2284.41,1747.52 2289.72,1747.52C2295.02,1747.52 2300.1,1749.37 2304.95,1753.06C2309.79,1756.75 2312.1,1760.91 2312.1,1765.75C2312.1,1768.52 2311.17,1770.83 2309.79,1772.9C2300.1,1788.36 2291.1,1808.67 2282.56,1833.58L2265.03,1916.64C2261.34,1934.18 2260.42,1956.33 2262.49,1983.09C2263.65,1986.09 2266.41,1990.48 2270.57,1995.78C2272.64,1996.24 2275.87,1994.63 2280.26,1990.48C2284.41,1986.55 2287.41,1984.25 2289.03,1983.79C2295.25,1979.63 2304.02,1971.33 2315.33,1959.1C2326.4,1946.87 2336.32,1938.79 2344.86,1935.1L2363.09,1913.41C2353.63,1945.49 2343.71,1964.64 2333.55,1971.1C2328.94,1978.94 2320.86,1990.48 2309.79,2005.24C2289.03,2018.16 2273.8,2024.16 2264.11,2023.7C2254.65,2023.24 2244.03,2015.16 2232.27,1999.7C2231.11,1990.25 2230.65,1980.55 2230.65,1971.1C2230.65,1965.79 2230.65,1960.48 2230.88,1955.41C2222.58,1954.25 2217.73,1954.71 2216.35,1956.56ZM3374.12,1996.47C3368.35,1999.24 3358.66,2004.32 3345.51,2011.7C3338.58,2012.16 3327.28,2008.01 3311.82,1999.01C3311.36,1994.63 3309.28,1987.48 3305.36,1977.32C3301.67,1967.17 3299.82,1959.33 3299.82,1953.33C3295.67,1958.17 3292.67,1962.56 3291.06,1966.25C3271.44,1990.71 3259.91,2004.55 3256.68,2007.78C3241.22,2020.93 3224.84,2026.47 3207.3,2023.7C3192.77,2012.63 3185.62,1996.01 3185.62,1974.09C3185.62,1936.49 3189.31,1907.65 3196.92,1888.04C3215.61,1836.81 3252.53,1791.82 3307.9,1753.06L3320.59,1753.06C3332.82,1753.06 3339.05,1760.21 3339.05,1774.52C3339.05,1779.36 3337.43,1788.82 3334.2,1803.36C3331.66,1810.28 3325.66,1819.28 3316.67,1830.35C3315.05,1834.28 3308.59,1837.97 3297.52,1841.66C3300.05,1827.82 3304.44,1817.2 3310.21,1809.59C3310.9,1808.2 3312.05,1803.82 3314.36,1796.9C3314.82,1795.75 3315.05,1794.36 3315.05,1792.05C3315.05,1790.44 3314.82,1788.59 3314.36,1786.52C3316.9,1784.44 3318.28,1782.59 3318.28,1780.98C3315.05,1780.52 3309.51,1784.9 3301.44,1794.59C3299.82,1795.52 3297.29,1798.05 3293.59,1801.74C3238.68,1864.5 3210.76,1921.49 3209.61,1972.71C3211.69,1987.94 3216.53,1996.47 3223.92,1998.09C3242.14,1993.24 3257.83,1979.63 3271.21,1956.56C3285.98,1943.41 3299.36,1919.41 3311.13,1884.8C3316.9,1871.42 3327.74,1837.74 3343.89,1783.29C3345.97,1778.44 3351.74,1774.52 3361.43,1771.29C3366.27,1776.6 3368.58,1782.59 3368.58,1788.82C3368.58,1792.75 3367.43,1797.82 3365.35,1804.05C3363.27,1812.13 3361.89,1817.43 3361.43,1819.97C3339.97,1878.58 3329.36,1917.57 3329.36,1936.72C3329.36,1961.64 3334.43,1978.71 3344.58,1987.71C3346.66,1987.25 3353.35,1983.79 3364.66,1977.32C3374.12,1972.02 3379.88,1969.48 3382.19,1969.48C3382.65,1972.02 3382.88,1974.79 3382.88,1977.32C3382.88,1987.48 3379.88,1993.94 3374.12,1996.47Z" style="fill:rgb(227,11,19);"/>
    </g>
</svg>
