<?xml version="1.0" encoding="UTF-8" standalone="no"?>
<!DOCTYPE svg PUBLIC "-//W3C//DTD SVG 1.1//EN" "http://www.w3.org/Graphics/SVG/1.1/DTD/svg11.dtd">
<svg width="100%" height="100%" viewBox="0 0 1131 1081" version="1.1" xmlns="http://www.w3.org/2000/svg" xmlns:xlink="http://www.w3.org/1999/xlink" xml:space="preserve" xmlns:serif="http://www.serif.com/" style="fill-rule:evenodd;clip-rule:evenodd;stroke-linejoin:round;stroke-miterlimit:2;">
    <g transform="matrix(1,0,0,1,-616.501,-1463.05)">
        <path d="M1683.61,2027.39C1796.2,2185.21 1543.56,2469 1414.12,2543.98C1662.84,2432.31 1800.82,2153.83 1727.91,1882.27C1647.15,1580.71 1337.29,1401.67 1035.74,1482.42C995.822,1493.04 958.214,1507.8 923.144,1525.8C1142.56,1429.59 1616.01,1512.19 1617.39,1784.44C1612.78,1824.36 1592.01,1862.19 1556.94,1887.34C1490.49,1934.87 1398.43,1919.64 1350.91,1853.43C1303.15,1787.21 1318.37,1694.92 1384.59,1647.39C1407.2,1631.24 1432.81,1622.47 1458.42,1620.17C1348.6,1550.72 1211.09,1525.57 1075.42,1562.02C817.935,1631.01 664.965,1895.88 733.951,2153.37C802.938,2411.08 1067.81,2564.05 1325.53,2495.07C1464.65,2457.69 1573.32,2363.09 1632.85,2243.58C1568.48,2277.96 1487.26,2260.19 1443.43,2199.28C1395.9,2133.06 1411.12,2041 1477.34,1993.24C1543.56,1945.72 1635.85,1960.94 1683.38,2027.16C1683.38,2027.16 1683.38,2027.39 1683.61,2027.39ZM1327.83,1996.24C1327.83,2025.32 1304.3,2048.85 1275.23,2048.85C1246.16,2048.85 1222.62,2025.32 1222.62,1996.24C1222.62,1967.17 1246.16,1943.64 1275.23,1943.64C1304.3,1943.64 1327.83,1967.17 1327.83,1996.24ZM1104.72,1996.94C1152.25,2063.15 1137.26,2155.44 1071.04,2202.97C1004.59,2250.5 912.531,2235.27 865.002,2169.06C817.242,2102.84 832.47,2010.55 898.688,1963.02C964.905,1915.49 1057.19,1930.72 1104.72,1996.94ZM1233.01,1662.62C1280.53,1728.84 1265.54,1821.13 1199.32,1868.65C1133.1,1916.18 1040.81,1900.96 993.284,1834.74C945.755,1768.52 960.752,1676.23 1026.97,1628.7C1093.19,1581.17 1185.48,1596.4 1233.01,1662.62ZM1176.94,2188.44C1243.16,2140.91 1335.45,2155.9 1382.98,2222.12C1430.5,2288.34 1415.51,2380.63 1349.29,2428.16C1283.07,2475.69 1190.78,2460.69 1143.25,2394.47C1095.73,2328.25 1110.72,2235.97 1176.94,2188.44Z" style="fill:rgb(25,27,31);"/>
        <path d="M915.992,2527.37C670.964,2361.48 572.445,2048.62 678.116,1772.44C616.975,1892.42 598.286,2034.54 635.894,2174.82C678.116,2332.18 782.634,2456.08 915.992,2527.37Z" style="fill:rgb(227,11,19);"/>
    </g>
</svg>
